<?xml version="1.0" encoding="UTF-8"?>
<!DOCTYPE svg PUBLIC "-//W3C//DTD SVG 1.1//EN" "http://www.w3.org/Graphics/SVG/1.1/DTD/svg11.dtd">
<!-- Creator: CorelDRAW X7 -->
<svg xmlns="http://www.w3.org/2000/svg" xml:space="preserve" width="574.175mm" height="95.5504mm" version="1.1" style="shape-rendering:geometricPrecision; text-rendering:geometricPrecision; image-rendering:optimizeQuality; fill-rule:evenodd; clip-rule:evenodd"
viewBox="0 0 75299 12531"
 xmlns:xlink="http://www.w3.org/1999/xlink">
 <defs>
  <style type="text/css">
   <![CDATA[
    .fil3 {fill:#115278}
    .fil0 {fill:#115278;fill-rule:nonzero}
    .fil2 {fill:#1EBEB6;fill-rule:nonzero}
    .fil1 {fill:#1EBEB6;fill-rule:nonzero}
   ]]>
  </style>
 </defs>
 <g id="Layer_x0020_1">
  <metadata id="CorelCorpID_0Corel-Layer"/>
  <g id="_2708978658880">
   <path class="fil0" d="M12069 5006l0 -3116c0,-102 35,-188 106,-258 71,-71 157,-107 258,-107l2166 0 0 597 -1822 0 0 749 1357 0 0 233c0,101 -36,187 -107,258 -70,71 -157,106 -258,106l-992 0 0 1538 -708 0zm4999 -2691l0 1578c0,479 -125,793 -375,941 -249,149 -522,223 -819,223 -290,-14 -556,-95 -795,-243 -239,-149 -359,-455 -359,-921l0 -1578 708 0 0 1720c0,161 48,280 142,354 95,74 203,111 324,111 121,0 231,-37 329,-111 98,-74 146,-193 146,-354l0 -1377 0 0c0,-94 32,-175 96,-242 65,-68 147,-101 249,-101l354 0zm2459 2691l-354 0c-102,0 -184,-32 -248,-96 -64,-64 -96,-146 -96,-247l0 0 0 -1377c0,-162 -49,-280 -147,-354 -98,-74 -207,-111 -329,-111 -121,0 -229,37 -324,111 -94,74 -142,192 -142,354l0 1720 -708 0 0 -1578c0,-459 120,-766 360,-922 239,-154 504,-239 794,-253 297,0 570,78 820,233 249,156 374,469 374,942l0 1578zm1893 -3491l344 0c94,0 175,35 243,106 67,71 101,150 101,238l0 1974c0,478 -138,802 -415,971 -276,169 -577,253 -900,253 -176,0 -348,-29 -517,-86 -168,-57 -303,-150 -404,-278 -196,-250 -294,-591 -294,-1023 0,-424 98,-766 294,-1021 202,-264 462,-396 779,-396 168,0 317,35 445,102 135,81 243,186 324,314l0 -1154zm-1153 2125c0,270 50,476 151,618 102,141 247,212 435,212 182,0 324,-71 425,-212 95,-142 142,-348 142,-618 0,-242 -51,-435 -152,-577 -108,-134 -253,-202 -435,-202 -175,0 -313,71 -415,213 -101,134 -151,324 -151,566zm3521 11c-95,46 -226,90 -394,131 -156,33 -234,51 -234,51 -120,33 -209,77 -263,131 -47,74 -71,149 -71,223 0,101 31,182 92,242 60,55 148,82 263,82 188,0 337,-55 445,-163 108,-108 162,-256 162,-444l0 -253zm162 1244c-142,74 -292,120 -450,136 -159,18 -299,26 -421,26 -242,0 -455,-66 -637,-197 -182,-132 -273,-349 -273,-653 0,-284 82,-486 248,-607 165,-122 376,-202 632,-243 34,0 74,-5 122,-16 47,-9 101,-18 161,-25 297,-40 446,-127 446,-263 0,-101 -53,-167 -157,-197 -105,-30 -201,-46 -289,-46 -94,0 -179,14 -253,41 -74,27 -128,78 -161,152l-678 0c27,-210 121,-382 283,-517 182,-155 442,-233 779,-233 378,0 662,65 851,193 195,135 292,324 292,566l0 922c0,269 -48,480 -146,632 -98,152 -215,262 -349,329zm3745 111l-719 0 0 -1295 -1265 -2186 881 0 739 1498 596 -1296c68,-134 179,-202 334,-202l577 0 -1143 2186 0 1295zm3332 -2691l0 1578c0,479 -125,793 -374,941 -250,149 -523,223 -820,223 -290,-14 -555,-95 -794,-243 -240,-149 -360,-455 -360,-921l0 -1578 709 0 0 1720c0,161 47,280 141,354 95,74 203,111 324,111 122,0 231,-37 329,-111 98,-74 147,-193 147,-354l0 -1377 0 0c0,-94 32,-175 96,-242 64,-68 146,-101 248,-101l354 0zm-1396 -527l0 284 -465 0 0 -456 292 0c115,0 173,58 173,172zm910 0l0 284 -455 0 0 -456 283 0c115,0 172,58 172,172zm1461 527l0 0 0 991 861 -991 850 0 -961 1032 971 1659 -850 0 -496 -911c-101,-182 -189,-259 -263,-232 -74,27 -112,67 -112,121l0 375 0 647 -708 0 0 -3481 365 0c94,0 175,34 242,101 68,68 101,145 101,233l0 456zm1626 1801l689 0c6,135 57,236 151,303 102,67 236,101 405,101 122,0 226,-23 313,-71 82,-46 122,-110 122,-191 0,-122 -142,-213 -425,-274 -122,-20 -212,-40 -274,-61 -357,-87 -596,-192 -718,-313 -135,-122 -202,-283 -202,-486 0,-257 98,-469 294,-638 202,-155 465,-233 789,-233 350,0 630,78 840,233 195,169 300,388 314,658l-436 0c-127,0 -226,-57 -293,-171l0 0c-27,-28 -54,-55 -81,-82 -81,-61 -192,-91 -334,-91 -135,0 -236,21 -304,61 -60,40 -90,101 -90,182 0,108 175,199 525,273 41,14 76,24 107,31 30,6 58,10 86,10 344,87 583,189 719,303 127,122 191,284 191,486 0,297 -108,526 -324,688 -202,149 -506,223 -910,223 -385,0 -672,-77 -860,-233 -196,-155 -294,-381 -294,-678l0 -30zm4372 60l506 0c-74,284 -216,500 -425,648 -209,156 -472,233 -789,233 -385,0 -685,-125 -901,-375 -216,-242 -324,-590 -324,-1042 0,-432 105,-769 314,-1012 216,-249 516,-375 900,-375 405,0 719,122 942,365 216,249 323,597 323,1042 0,28 0,51 0,71 0,21 0,34 0,40 0,34 -3,58 -10,71l-1750 0c7,210 57,365 152,466 87,108 218,162 394,162 114,0 213,-23 293,-71 21,-7 39,-19 56,-35 17,-17 36,-36 55,-56 7,-20 32,-47 76,-81 44,-33 107,-51 188,-51zm-1214 -789l1032 0c-14,-182 -61,-317 -142,-405 -88,-94 -212,-141 -375,-141 -147,0 -269,47 -363,141 -95,95 -145,230 -152,405zm1902 -1862l365 0c94,0 175,32 242,96 68,64 101,144 101,238l0 3147 -708 0 0 -3481zm3978 3481l-719 0 0 -1295 -1265 -2186 881 0 738 1498 597 -1296c68,-134 179,-202 334,-202l577 0 -1143 2186 0 1295zm2854 -1355c-95,46 -227,90 -395,131 -155,33 -233,51 -233,51 -121,33 -209,77 -263,131 -47,74 -71,149 -71,223 0,101 31,182 91,242 61,55 149,82 264,82 188,0 336,-55 444,-163 108,-108 163,-256 163,-444l0 -253zm161 1244c-141,74 -292,120 -450,136 -159,18 -298,26 -420,26 -243,0 -455,-66 -638,-197 -182,-132 -272,-349 -272,-653 0,-284 82,-486 247,-607 165,-122 376,-202 633,-243 33,0 74,-5 121,-16 48,-9 101,-18 162,-25 297,-40 445,-127 445,-263 0,-101 -52,-167 -157,-197 -104,-30 -200,-46 -288,-46 -94,0 -179,14 -253,41 -75,27 -128,78 -162,152l-678 0c27,-210 121,-382 284,-517 182,-155 442,-233 779,-233 378,0 661,65 850,193 195,135 293,324 293,566l0 922c0,269 -48,480 -147,632 -97,152 -214,262 -349,329zm2258 111l-719 0 -941 -2691 749 0 536 1892 476 -1650c54,-161 162,-242 323,-242l0 0 526 0 -950 2691zm3420 -2691l0 1578c0,479 -125,793 -375,941 -249,149 -522,223 -819,223 -290,-14 -555,-95 -795,-243 -239,-149 -359,-455 -359,-921l0 -1578 708 0 0 1720c0,161 48,280 142,354 95,74 203,111 324,111 121,0 231,-37 329,-111 98,-74 147,-193 147,-354l0 -1377 0 0c0,-94 31,-175 95,-242 65,-68 147,-101 249,-101l354 0zm112 2691l0 -536 1447 -1599 -1023 0c-94,0 -175,-32 -242,-96 -68,-64 -101,-143 -101,-238l0 -222 2205 0 0 576 -1426 1528 1477 0 0 587 -2337 0zm5596 0l-718 0 0 -1295 -1265 -2186 881 0 738 1498 597 -1296c68,-134 178,-202 334,-202l577 0 -1144 2186 0 1295zm3333 -2691l0 1578c0,479 -125,793 -375,941 -250,149 -522,223 -820,223 -290,-14 -555,-95 -794,-243 -239,-149 -359,-455 -359,-921l0 -1578 708 0 0 1720c0,161 47,280 141,354 95,74 203,111 324,111 122,0 232,-37 329,-111 99,-74 147,-193 147,-354l0 -1377 0 0c0,-94 32,-175 96,-242 65,-68 147,-101 249,-101l354 0zm-1397 -527l0 284 -465 0 0 -456 293 0c115,0 172,58 172,172zm911 0l0 284 -456 0 0 -456 284 0c115,0 172,58 172,172zm1461 527l0 0 0 991 860 -991 850 0 -961 1032 972 1659 -851 0 -495 -911c-102,-182 -190,-259 -264,-232 -74,27 -111,67 -111,121l0 375 0 647 -708 0 0 -3481 364 0c94,0 175,34 243,101 67,68 101,145 101,233l0 456zm1781 1801l689 0c6,135 57,236 151,303 102,67 236,101 405,101 121,0 226,-23 313,-71 81,-46 122,-110 122,-191 0,-122 -142,-213 -425,-274 -122,-20 -212,-40 -274,-61 -357,-87 -596,-192 -718,-313 -135,-122 -202,-283 -202,-486 0,-257 97,-469 293,-638 202,-155 466,-233 790,-233 350,0 630,78 840,233 195,169 299,388 313,658l-435 0c-128,0 -226,-57 -294,-171l0 0c-26,-28 -53,-55 -81,-82 -80,-61 -191,-91 -333,-91 -136,0 -237,21 -304,61 -60,40 -91,101 -91,182 0,108 176,199 526,273 41,14 76,24 106,31 31,6 59,10 87,10 343,87 583,189 718,303 128,122 192,284 192,486 0,297 -108,526 -324,688 -202,149 -506,223 -910,223 -385,0 -672,-77 -860,-233 -196,-155 -294,-381 -294,-678l0 -30zm4372 60l506 0c-75,284 -216,500 -425,648 -209,156 -473,233 -790,233 -385,0 -684,-125 -900,-375 -216,-242 -324,-590 -324,-1042 0,-432 104,-769 313,-1012 216,-249 517,-375 901,-375 405,0 719,122 941,365 216,249 324,597 324,1042 0,28 0,51 0,71 0,21 0,34 0,40 0,34 -3,58 -10,71l-1751 0c7,210 57,365 152,466 88,108 219,162 395,162 114,0 213,-23 293,-71 21,-7 39,-19 56,-35 16,-17 35,-36 55,-56 7,-20 32,-47 76,-81 44,-33 106,-51 188,-51zm-1215 -789l1032 0c-13,-182 -60,-317 -141,-405 -88,-94 -213,-141 -375,-141 -148,0 -269,47 -364,141 -95,95 -145,230 -152,405zm1903 -1862l364 0c94,0 176,32 243,96 67,64 101,144 101,238l0 3147 -708 0 0 -3481z"/>
   <path class="fil1" d="M15321 9699l476 0 0 -2944 941 2944 445 0 932 -2944 0 2944 485 0 0 -3521 -779 0 -860 2843 -871 -2843 -465 0c-203,0 -304,97 -304,293l0 3228zm6213 -354c-243,0 -419,-69 -527,-207 -108,-139 -162,-302 -162,-491l0 -1690 -475 0 0 1640c0,768 387,1153 1164,1153 775,0 1163,-385 1163,-1153l0 -1640 -181 0c-203,0 -304,101 -304,304l0 1386c0,189 -55,352 -163,491 -108,138 -280,207 -515,207zm3753 -1265c-554,101 -837,375 -850,820 -14,566 321,850 1002,850 458,0 786,-84 981,-253 196,-169 294,-425 294,-769l0 -1154c-7,-439 -374,-658 -1103,-658 -702,7 -1053,260 -1053,759l486 0c0,-242 185,-368 556,-374 425,-14 638,94 638,324 0,195 -121,314 -364,354 -216,41 -412,74 -587,101zm951 131l0 517c0,418 -239,628 -719,628 -377,0 -566,-147 -566,-441 0,-293 192,-467 577,-521 222,-27 384,-54 486,-81 101,-27 175,-61 222,-102zm2033 -1254l900 2580c75,216 78,405 11,567 -68,162 -213,243 -435,243l-112 0 0 425 112 0c195,0 354,-50 475,-152 135,-101 253,-269 354,-506l1114 -3157 -193 0c-216,0 -351,101 -404,304l-618 1801 -709 -2105 -495 0zm5848 1153c13,0 -492,0 -1518,0 60,-513 315,-768 764,-768 448,0 700,255 754,768zm465 395c54,-1059 -350,-1589 -1214,-1589 -823,0 -1238,472 -1245,1417 14,945 419,1417 1215,1417 661,0 1062,-297 1204,-891l-304 0c-121,0 -213,55 -273,162 -101,176 -297,273 -587,294 -479,0 -739,-270 -779,-810 1336,0 1997,0 1983,0zm2924 -1173c451,0 678,232 678,697l0 1377c0,196 101,293 304,293l181 0 0 -1619c7,-782 -381,-1173 -1163,-1173 -783,0 -1171,391 -1164,1173l0 1619 476 0 0 -1670c0,-465 229,-697 688,-697zm4927 778c13,0 -493,0 -1518,0 60,-513 315,-768 764,-768 448,0 699,255 754,768zm465 395c54,-1059 -350,-1589 -1214,-1589 -823,0 -1238,472 -1245,1417 14,945 419,1417 1215,1417 660,0 1062,-297 1204,-891l-304 0c-121,0 -213,55 -273,162 -101,176 -297,273 -588,294 -478,0 -738,-270 -778,-810 1335,0 1997,0 1983,0zm2923 -1173c452,0 678,249 678,748l0 1619 486 0 0 -1619c0,-775 -364,-1164 -1093,-1164 -324,0 -577,142 -759,426l0 0 0 -871c0,-203 -101,-300 -304,-293l-172 0 0 3521 476 0 0 -1599c0,-512 230,-768 688,-768zm3713 748c-553,101 -837,375 -850,820 -13,566 321,850 1002,850 459,0 786,-84 981,-253 196,-169 294,-425 294,-769l0 -1154c-7,-439 -374,-658 -1103,-658 -702,7 -1053,260 -1053,759l487 0c0,-242 184,-368 556,-374 425,-14 637,94 637,324 0,195 -121,314 -364,354 -216,41 -412,74 -587,101zm951 131l0 517c0,418 -239,628 -719,628 -377,0 -566,-147 -566,-441 0,-293 193,-467 577,-521 223,-27 384,-54 486,-81 101,-27 175,-61 222,-102zm3450 -879c452,0 678,232 678,697l0 1377c0,196 101,293 304,293l181 0 0 -1619c7,-782 -381,-1173 -1163,-1173 -782,0 -1171,391 -1164,1173l0 1619 476 0 0 -1670c0,-465 230,-697 688,-697zm4927 778c13,0 -492,0 -1518,0 60,-513 315,-768 764,-768 448,0 700,255 754,768zm465 395c54,-1059 -350,-1589 -1214,-1589 -823,0 -1238,472 -1245,1417 14,945 419,1417 1215,1417 661,0 1062,-297 1204,-891l-304 0c-121,0 -213,55 -273,162 -101,176 -297,273 -587,294 -479,0 -739,-270 -779,-810 1336,0 1997,0 1983,0zm3490 -283c-364,-101 -653,-182 -865,-243 -212,-61 -319,-166 -319,-313 0,-230 186,-348 556,-355 324,0 520,81 588,243 40,94 118,138 233,132l333 0c-87,-513 -465,-770 -1133,-770 -715,28 -1072,290 -1072,789 7,358 222,598 647,719 425,122 685,192 779,213 264,61 388,176 375,344 0,256 -231,384 -693,384 -462,0 -704,-185 -724,-556l-476 0c-20,627 368,941 1164,941 823,0 1235,-293 1235,-880 0,-311 -210,-526 -628,-648zm2853 1477l-476 0 0 -2742 172 0c203,0 304,97 304,293l0 2449zm0 -3116l-476 0 0 -405 172 0c203,0 304,97 304,293l0 112z"/>
   <g>
    <path class="fil0" d="M8152 1496c-300,150 -620,230 -939,280 -330,50 -650,50 -979,20 -320,-30 -639,-90 -939,-190 -300,-110 -589,-250 -879,-399 -290,-160 -579,-320 -889,-460 -320,-140 -649,-270 -1019,-329 -190,-20 -389,-20 -579,10 -200,39 -390,109 -560,209 -339,210 -589,500 -799,799 -199,300 -369,630 -459,989 -100,360 -130,739 -100,1099 40,729 250,1388 450,2027 199,630 399,1249 519,1868 70,310 110,620 130,929 20,310 20,629 10,949 -30,639 -120,1259 -280,1878l-60 250c-20,89 -40,179 -50,299 -10,50 -10,120 0,210 0,50 20,100 30,150 30,60 60,110 100,160 80,110 180,159 250,189 80,30 140,50 200,60 109,20 209,30 299,30 20,10 70,10 110,0 40,0 70,0 110,-10 80,-10 140,-40 210,-60 239,-119 379,-269 509,-419 250,-290 420,-589 599,-879 170,-300 320,-589 480,-879 160,-290 319,-569 489,-849 160,-270 340,-539 540,-769 189,-230 409,-440 649,-540 240,-99 479,-99 729,20 40,10 70,20 100,40 30,20 60,40 90,60l50 20 50 40 100 70c139,90 289,180 429,270 50,40 2937,2447 6792,2627 12975,609 44688,230 54446,170 -10,0 -20,-10 -30,-10 -60,-40 -90,-120 -60,-190l90 -160c-10008,40 -41581,350 -54356,-250 -3726,-179 -6572,-2547 -6622,-2577 -130,-100 -260,-199 -390,-299l-100 -70 -50 -40 -60 -40c-29,-30 -69,-50 -109,-80 -40,-20 -90,-50 -130,-70 -170,-90 -370,-160 -580,-170 -209,-20 -419,20 -609,90 -379,150 -669,410 -909,659 -489,530 -829,1119 -1168,1698 -170,280 -340,570 -510,849 -160,270 -339,540 -529,749 -90,100 -190,180 -250,210 -20,0 -30,0 -40,10 0,-10 0,0 0,0 -10,0 0,0 -20,0 -80,-10 -150,-20 -200,-30 -20,0 -40,-10 -40,-10 0,0 30,10 60,50 30,30 40,80 40,80 0,10 0,-10 0,-30 10,-50 20,-120 40,-190l60 -239c80,-330 160,-670 210,-1009 60,-340 90,-689 100,-1029 20,-350 20,-689 -10,-1049 -30,-349 -80,-689 -150,-1029 -140,-679 -360,-1328 -569,-1947 -220,-630 -420,-1239 -470,-1838 -60,-599 60,-1179 380,-1698 160,-250 349,-480 569,-629 230,-150 490,-210 769,-190 290,20 590,110 889,230 300,109 599,249 909,379 310,130 629,260 959,340 90,20 170,40 260,60l249 30c170,20 340,30 510,30 679,0 1368,-160 1928,-530l0 0zm60558 9939l660 -10c2707,-10 1638,-100 3306,409 319,100 679,170 1029,120 179,-20 349,-80 509,-160 160,-80 290,-200 410,-319 229,-250 389,-560 509,-869 -160,289 -350,569 -599,779 -240,209 -540,329 -849,339 -300,10 -610,-70 -909,-190 -1628,-659 -1249,-479 -3266,-469 -140,90 -290,170 -450,230l-330 130 -10 10 -10 0 0 0z"/>
    <path class="fil2" d="M6593 907c440,-150 889,-260 1319,-280 220,-10 429,0 629,40 200,40 380,110 549,210 160,100 300,230 420,370 60,79 120,159 170,239 30,40 50,80 70,130l40 60 20 60c149,340 159,719 90,1119 -70,399 -210,819 -360,1238 -150,420 -320,849 -470,1299 -149,439 -279,889 -359,1368 -70,460 -90,949 -10,1408 180,-919 559,-1718 969,-2537 200,-409 399,-819 589,-1248 100,-220 180,-440 260,-669 80,-230 140,-470 190,-720 39,-259 59,-519 30,-789 -30,-279 -100,-549 -220,-799l-50 -90 -60 -89c-30,-60 -70,-120 -110,-170 -80,-100 -170,-200 -260,-300 -189,-190 -419,-349 -669,-449 -250,-110 -509,-160 -769,-170 -260,-10 -509,30 -749,90 -240,70 -460,160 -669,279 -210,110 -410,240 -590,400l0 0zm1968 9808c-140,220 -260,420 -399,610 -130,179 -280,349 -410,419 -60,30 -100,20 -130,10 -50,-10 -90,-30 -130,-60 -100,-70 -209,-229 -319,-409 -210,-370 -400,-819 -680,-1239 -149,-210 -309,-419 -529,-589 -110,-80 -240,-150 -369,-190 -140,-40 -280,-30 -400,10 240,100 370,260 469,450 100,189 180,399 250,609 160,439 290,889 559,1358 130,230 300,480 610,660 160,89 359,139 549,129 110,-10 210,-40 300,-80 90,-39 170,-99 230,-159 119,-120 199,-250 259,-380 50,-130 90,-260 120,-389 40,-250 60,-510 20,-760l0 0z"/>
    <g>
     <path class="fil3" d="M74833 88c-429,-210 -939,-30 -1148,389l-3386 6723c-30,69 0,149 70,189 20,10 39,10 59,10l80 10 -1957 3816c-30,70 0,160 70,200 30,10 69,20 109,10l10 -10 340 -130c629,-250 1139,-709 1438,-1309l200 -389c80,-170 100,-370 50,-550 -30,-109 -20,-229 30,-339l669 -1289 530 10c50,10 99,-30 129,-70l3077 -6112c220,-420 50,-939 -370,-1159zm-4295 8490c-80,170 -100,360 -50,549 30,110 20,230 -30,340l-199 389c-270,530 -719,949 -1279,1169l1848 -3616 320 10 -610 1159zm4405 -7461l-3036 6023 -1249 -20 3286 -6513c130,-279 480,-399 759,-269 280,149 390,499 240,779l0 0z"/>
     <path class="fil3" d="M73954 957c-100,200 -20,429 180,529 190,100 420,20 520,-170 99,-199 19,-429 -170,-529 -200,-100 -430,-20 -530,170zm440 230c-20,50 -80,70 -130,40 -60,-20 -80,-90 -50,-140 30,-50 90,-70 140,-40 50,20 70,90 40,140 0,0 0,0 0,0l0 0z"/>
     <path class="fil3" d="M72256 4643c-70,-30 -150,0 -189,69 -30,70 -10,160 59,190l0 0 450 220c70,40 150,10 190,-60 40,-70 10,-160 -60,-190l0 0 -450 -229z"/>
     <path class="fil3" d="M72007 5142c-70,-40 -150,-10 -190,60 -40,70 -10,160 60,200 0,0 0,0 0,0l449 219c70,40 150,10 190,-60 40,-69 10,-159 -60,-199l0 0 -449 -220z"/>
     <path class="fil3" d="M71757 5641c-70,-40 -150,-10 -190,60 -40,70 -10,160 60,200l450 220c69,40 149,10 189,-60 40,-70 20,-150 -50,-190 -10,-10 -10,-10 -10,-10l-449 -220z"/>
    </g>
   </g>
  </g>
 </g>
</svg>
